<svg width="142" height="32" viewBox="0 0 142 32" fill="none" xmlns="http://www.w3.org/2000/svg">
    <path fill-rule="evenodd" clip-rule="evenodd" d="M51.3117 17.6612V24.0083C51.3117 24.5289 51.153 24.6777 50.5975 24.6777H47.7142C47.1587 24.6777 47 24.5289 47 24.0083V7.99174C47 7.47107 47.1587 7.32231 47.7142 7.32231H59.7235C60.279 7.32231 60.4377 7.47107 60.4377 7.99174V10.0744C60.4377 10.595 60.279 10.7438 59.7235 10.7438H51.3117V14.2397H59.4589C60.0144 14.2397 60.1732 14.3884 60.1732 14.9091V16.9917C60.1732 17.5124 60.0144 17.6612 59.4589 17.6612H51.3117ZM64.4301 16C64.4301 11.0661 68.7418 7 73.9529 7C79.1639 7 83.4756 11.0661 83.4756 16C83.4756 20.9339 79.1639 25 73.9529 25C68.7418 25 64.4301 20.9339 64.4301 16ZM68.7947 16C68.7947 18.7025 70.6728 21.5041 73.9529 21.5041C77.3387 21.5041 79.111 18.7025 79.111 16C79.111 13.2479 77.3387 10.4959 73.9529 10.4959C70.6728 10.4959 68.7947 13.2479 68.7947 16ZM92.23 18.3802L85.617 7.99174C85.2996 7.47107 85.4583 7.32231 85.9609 7.32231H89.2674C89.7435 7.32231 89.8758 7.47107 90.1932 7.99174L94.3198 14.9339L98.5256 7.99174C98.8431 7.47107 98.9753 7.32231 99.4515 7.32231H102.679C103.181 7.32231 103.34 7.47107 103.023 7.99174L96.4095 18.3802V24.0083C96.4095 24.5289 96.2508 24.6777 95.6953 24.6777H92.9443C92.3888 24.6777 92.23 24.5289 92.23 24.0083V18.3802ZM120.32 24.6777H108.311C107.755 24.6777 107.596 24.5289 107.596 24.0083V7.99174C107.596 7.47107 107.755 7.32231 108.311 7.32231H120.32C120.875 7.32231 121.034 7.47107 121.034 7.99174V10.0744C121.034 10.595 120.875 10.7438 120.32 10.7438H111.908V14.2397H119.976C120.531 14.2397 120.69 14.3884 120.69 14.9091V16.9917C120.69 17.5124 120.531 17.6612 119.976 17.6612H111.908V21.2562H120.32C120.875 21.2562 121.034 21.405 121.034 21.9256V24.0083C121.034 24.5289 120.875 24.6777 120.32 24.6777ZM141.267 12.5289C141.267 15.3058 139.495 16.7438 137.379 17.3636L141.849 23.8099C142.246 24.4298 141.796 24.6777 141.241 24.6777H138.569C138.014 24.6777 137.696 24.4793 137.352 24.0083L133.014 17.7355H131.533V24.0083C131.533 24.5289 131.374 24.6777 130.819 24.6777H127.935C127.38 24.6777 127.221 24.5289 127.221 24.0083V7.99174C127.221 7.47107 127.38 7.32231 127.935 7.32231H134.522C137.537 7.32231 141.267 8.5124 141.267 12.5289ZM131.533 14.3884H134.39C136.241 14.3884 137.088 13.8182 137.088 12.5289C137.088 11.2397 136.241 10.6694 134.39 10.6694H131.533V14.3884Z" fill="#2E3B54"/>
    <path opacity="0.4" fill-rule="evenodd" clip-rule="evenodd" d="M0.0511338 17.8804L15.0608 0.722681L32.9486 15.1197L17.9389 32.2774L0.0511338 17.8804Z" fill="#FE9232"/>
    <path fill-rule="evenodd" clip-rule="evenodd" d="M0.550781 12.4009L20.7732 1.20199L32.4487 20.599L12.2262 31.7979L0.550781 12.4009Z" fill="url(#paint0_linear)"/>
    <defs>
        <linearGradient id="paint0_linear" x1="28.0241" y1="36.4608" x2="36.2205" y2="4.56955" gradientUnits="userSpaceOnUse">
            <stop stop-color="#FC5B8D"/>
            <stop offset="1" stop-color="#FF9E1E"/>
        </linearGradient>
    </defs>
</svg>