<svg width="101px" height="27px" viewBox="0 0 101 27" version="1.1" xmlns="http://www.w3.org/2000/svg" xmlns:xlink="http://www.w3.org/1999/xlink">
    <!-- Generator: Sketch 49.3 (51167) - http://www.bohemiancoding.com/sketch -->
    <desc>Created with Sketch.</desc>
    <defs></defs>
    <g id="Headers" stroke="none" stroke-width="1" fill="none" fill-rule="evenodd">
        <g transform="translate(-650.000000, -1389.000000)" fill="#222328" id="Header-2">
            <g transform="translate(115.000000, 1328.000000)">
                <g id="Logo" transform="translate(535.000000, 61.000000)">
                    <path d="M7.3994,10.5944 C7.5744,9.8034 7.8114,8.7804 8.1134,7.5264 C8.4144,6.2714 8.7974,4.7084 9.2634,2.8364 C9.2054,2.6244 9.1184,2.4604 9.0014,2.3444 C8.9234,2.2674 8.8564,2.2194 8.7974,2.1994 C9.2634,1.9874 9.7304,1.8144 10.1964,1.6784 C10.6624,1.5444 11.1374,1.4764 11.6234,1.4764 C12.1284,1.4764 12.6334,1.5584 13.1384,1.7224 C13.6434,1.8864 14.0894,2.1664 14.4784,2.5614 C14.8664,2.9574 15.1634,3.4784 15.3664,4.1244 C15.5704,4.7714 15.6244,5.5764 15.5274,6.5424 C15.4294,7.5454 15.2114,8.4574 14.8714,9.2774 C14.5314,10.0974 14.1094,10.8314 13.6044,11.4774 C13.0994,12.1244 12.5414,12.6924 11.9294,13.1854 C11.3174,13.6774 10.6914,14.0974 10.0504,14.4444 C9.4094,14.7914 8.7684,15.0664 8.1274,15.2694 C7.4864,15.4724 6.9044,15.6124 6.3794,15.6894 C6.4964,15.0714 6.5984,14.5164 6.6854,14.0244 C6.7734,13.5324 6.8464,13.1324 6.9044,12.8234 C7.0204,12.2644 7.1854,11.5204 7.3994,10.5944 M0.8304,26.7464 C1.1314,26.9204 1.4564,27.0074 1.8064,27.0074 C2.4854,27.0074 2.9814,26.8574 3.2924,26.5584 C3.6024,26.2594 3.8554,25.8584 4.0494,25.3574 C4.2434,24.8944 4.4324,24.3394 4.6174,23.6924 C4.8014,23.0464 4.9814,22.3514 5.1564,21.6084 C5.3314,20.8654 5.4954,20.1084 5.6514,19.3364 C5.8064,18.5644 5.9624,17.8114 6.1174,17.0784 C8.0204,16.9824 9.7104,16.5864 11.1864,15.8914 C12.6624,15.1974 13.9144,14.3524 14.9444,13.3584 C15.9734,12.3654 16.7794,11.2794 17.3624,10.1024 C17.9454,8.9254 18.2944,7.7964 18.4114,6.7154 C18.4694,6.1364 18.4404,5.4614 18.3234,4.6894 C18.2074,3.9174 17.9494,3.1844 17.5514,2.4894 C17.1534,1.7944 16.5804,1.2064 15.8334,0.7234 C15.0854,0.2414 14.0994,0.0004 12.8764,0.0004 C11.6524,0.0004 10.5354,0.1154 9.5264,0.3474 C8.5164,0.5784 7.6324,0.8544 6.8754,1.1724 C6.1174,1.4904 5.4814,1.8144 4.9674,2.1414 C4.4524,2.4704 4.0684,2.7214 3.8164,2.8944 C3.3304,3.2234 3.0884,3.5414 3.0884,3.8504 C3.0884,4.1584 3.1464,4.4574 3.2624,4.7474 C3.3214,4.8824 3.3884,5.0074 3.4664,5.1234 C3.6024,5.3744 3.7964,5.6054 4.0494,5.8184 C4.3794,5.4714 4.7194,5.1384 5.0684,4.8194 C5.4184,4.5014 5.7484,4.2164 6.0594,3.9654 C6.4094,3.6764 6.7684,3.4154 7.1374,3.1844 C7.0014,3.6664 6.8164,4.3414 6.5834,5.2104 C6.3504,6.0784 6.0884,7.0484 5.7974,8.1194 C5.5064,9.1904 5.2044,10.3194 4.8944,11.5064 C4.5834,12.6924 4.2774,13.8464 3.9764,14.9654 C3.6754,16.0854 3.3984,17.1364 3.1464,18.1204 C2.8934,19.1044 2.6894,19.9154 2.5344,20.5524 C2.2434,21.7484 1.9614,22.6944 1.6894,23.3884 C1.4174,24.0834 1.1704,24.6144 0.9464,24.9804 C0.7234,25.3474 0.5294,25.5984 0.3644,25.7334 C0.1994,25.8684 0.0774,25.9654 0.0004,26.0234 C0.2524,26.3314 0.5294,26.5724 0.8304,26.7464" id="Fill-1"></path>
                    <path d="M19.9259,16.8757 C20.0029,16.4907 20.1009,16.0937 20.2169,15.6887 C20.5089,16.3647 20.9209,16.9187 21.4549,17.3527 C21.9889,17.7877 22.6249,18.0047 23.3639,18.0047 C23.5189,18.0047 23.6589,18.0007 23.7859,17.9907 C23.9119,17.9807 24.0429,17.9657 24.1789,17.9467 C24.0429,18.3137 23.8829,18.6657 23.6979,19.0037 C23.5139,19.3417 23.3049,19.6397 23.0719,19.9007 C22.8389,20.1617 22.5769,20.3737 22.2859,20.5377 C21.9939,20.7017 21.6739,20.7837 21.3239,20.7837 C21.0129,20.7837 20.7609,20.7017 20.5669,20.5377 C20.3729,20.3737 20.2169,20.1617 20.1009,19.9007 C19.9839,19.6397 19.9059,19.3417 19.8679,19.0037 C19.8289,18.6657 19.8089,18.3227 19.8089,17.9757 C19.8089,17.6287 19.8479,17.2617 19.9259,16.8757 M22.6209,12.0277 C22.9599,11.8247 23.3149,11.7237 23.6839,11.7237 C23.9169,11.7237 24.1159,11.8247 24.2809,12.0277 C24.4459,12.2297 24.5819,12.4907 24.6889,12.8087 C24.7949,13.1277 24.8679,13.4797 24.9069,13.8647 C24.9459,14.2517 24.9459,14.6277 24.9069,14.9937 C24.9069,15.1487 24.8829,15.3267 24.8349,15.5297 C24.7859,15.7327 24.7329,15.9597 24.6749,16.2097 C24.5769,16.2297 24.4799,16.2437 24.3829,16.2537 C24.2859,16.2627 24.1889,16.2677 24.0919,16.2677 C23.4899,16.2677 23.0179,16.1767 22.6789,15.9927 C22.3389,15.8097 22.0909,15.5837 21.9359,15.3127 C21.7799,15.0427 21.6829,14.7387 21.6449,14.4007 C21.6059,14.0637 21.5859,13.7397 21.5859,13.4307 C21.5859,13.2387 21.6159,13.0547 21.6739,12.8807 C21.9649,12.5147 22.2809,12.2297 22.6209,12.0277 M28.4329,16.4127 C29.0729,16.0267 29.6659,15.6307 30.2089,15.2257 C30.7529,14.8207 31.2239,14.4447 31.6219,14.0967 C32.0199,13.7497 32.2679,13.5187 32.3649,13.4017 C32.5399,13.1897 32.6469,12.9967 32.6859,12.8237 C32.7239,12.6497 32.7149,12.5147 32.6559,12.4177 C32.5979,12.3217 32.5009,12.2837 32.3649,12.3017 C32.2289,12.3217 32.0639,12.4177 31.8699,12.5917 C31.6369,12.8237 31.3259,13.0837 30.9379,13.3727 C30.5489,13.6627 30.1269,13.9477 29.6709,14.2267 C29.2139,14.5067 28.7429,14.7727 28.2579,15.0227 C27.7719,15.2737 27.3059,15.4867 26.8589,15.6597 C26.8779,15.5057 26.8979,15.3177 26.9179,15.0957 C26.9369,14.8737 26.9469,14.6857 26.9469,14.5307 C26.9469,13.7787 26.8199,13.1367 26.5679,12.6057 C26.3149,12.0757 26.0089,11.6367 25.6499,11.2887 C25.2909,10.9417 24.9219,10.6807 24.5429,10.5077 C24.1649,10.3337 23.8489,10.2377 23.5969,10.2177 C23.5379,10.1997 23.4849,10.1797 23.4359,10.1607 C23.3879,10.1417 23.3339,10.1317 23.2759,10.1317 C22.9269,10.1317 22.5669,10.1747 22.1979,10.2617 C21.8289,10.3477 21.4849,10.4737 21.1639,10.6377 C20.8439,10.8017 20.5619,11.0097 20.3189,11.2607 C20.0759,11.5117 19.8969,11.8007 19.7799,12.1287 C19.4499,12.5147 19.1639,12.9387 18.9209,13.4017 C18.6779,13.8647 18.4789,14.3287 18.3239,14.7917 C18.1679,15.2547 18.0469,15.7087 17.9599,16.1517 C17.8719,16.5957 17.8289,17.0017 17.8289,17.3677 C17.8289,17.8887 17.8529,18.4487 17.9009,19.0467 C17.9499,19.6457 18.0859,20.1947 18.3089,20.6967 C18.5319,21.1987 18.8719,21.6187 19.3289,21.9557 C19.7849,22.2937 20.4109,22.4627 21.2079,22.4627 C21.8869,22.4627 22.5139,22.3317 23.0869,22.0717 C23.6589,21.8117 24.1739,21.4497 24.6309,20.9867 C25.0869,20.5227 25.4799,19.9727 25.8109,19.3367 C26.1409,18.6997 26.4029,18.0147 26.5969,17.2807 C27.1799,17.0877 27.7909,16.7987 28.4329,16.4127" id="Fill-4"></path>
                    <path d="M29.0586,21.0296 C29.3016,20.6346 29.5976,20.1516 29.9476,19.5826 C30.2966,19.0126 30.6706,18.4006 31.0686,17.7446 C31.4666,17.0886 31.8456,16.4616 32.2046,15.8626 C32.5636,15.2646 32.8796,14.7436 33.1516,14.2996 C33.4236,13.8556 33.5986,13.5666 33.6756,13.4306 C33.8316,13.4696 33.9966,13.5276 34.1716,13.6046 C34.3466,13.6816 34.5596,13.7206 34.8126,13.7206 C34.9866,13.7206 35.1176,13.7166 35.2056,13.7056 C35.2926,13.6966 35.3606,13.6916 35.4096,13.6916 C35.4576,13.6916 35.5066,13.6876 35.5546,13.6776 C35.6036,13.6676 35.6856,13.6626 35.8026,13.6626 C35.9776,13.6626 36.1036,13.7306 36.1816,13.8646 C36.2586,14.0006 36.2976,14.1546 36.2976,14.3286 C36.2976,14.5986 36.1956,14.9316 35.9916,15.3266 C35.7876,15.7226 35.5206,16.2006 35.1906,16.7596 C35.0546,17.0306 34.9046,17.3056 34.7396,17.5846 C34.5736,17.8646 34.4186,18.1446 34.2736,18.4246 C34.1276,18.7046 34.0006,18.9746 33.8946,19.2346 C33.7876,19.4956 33.7246,19.7416 33.7056,19.9726 C33.6856,20.2626 33.7196,20.5766 33.8076,20.9136 C33.8946,21.2516 34.0406,21.5606 34.2446,21.8406 C34.4476,22.1196 34.7146,22.3566 35.0456,22.5496 C35.3756,22.7416 35.7926,22.8386 36.2976,22.8386 C36.7826,22.8386 37.2926,22.6936 37.8276,22.4046 C38.3616,22.1156 38.8956,21.7436 39.4296,21.2906 C39.9636,20.8366 40.4736,20.3346 40.9586,19.7846 C41.4446,19.2346 41.8856,18.6996 42.2846,18.1786 C42.6826,17.6576 43.0226,17.1846 43.3036,16.7596 C43.5856,16.3356 43.7846,16.0266 43.9016,15.8336 C44.0756,15.5446 44.1486,15.3126 44.1196,15.1386 C44.0906,14.9656 44.0176,14.8496 43.9016,14.7916 C43.7846,14.7336 43.6486,14.7336 43.4936,14.7916 C43.3376,14.8496 43.2116,14.9556 43.1146,15.1106 C42.9976,15.2646 42.8186,15.5156 42.5756,15.8626 C42.3326,16.2106 42.0366,16.6006 41.6876,17.0356 C41.3376,17.4696 40.9586,17.9136 40.5516,18.3666 C40.1436,18.8206 39.7306,19.2346 39.3126,19.6106 C38.8956,19.9876 38.4876,20.2966 38.0896,20.5376 C37.6916,20.7786 37.3266,20.8996 36.9966,20.8996 C36.5496,20.8996 36.2786,20.8226 36.1816,20.6676 C36.0836,20.5136 36.0166,20.3106 35.9776,20.0596 C35.9386,19.6746 36.0546,19.2396 36.3266,18.7576 C36.5986,18.2756 36.8706,17.8406 37.1426,17.4546 C37.5896,16.8366 37.9676,16.2676 38.2786,15.7466 C38.5896,15.2256 38.7156,14.7246 38.6576,14.2416 C38.6376,14.0096 38.5946,13.7546 38.5266,13.4746 C38.4586,13.1946 38.3566,12.9346 38.2206,12.6926 C38.0846,12.4516 37.9096,12.2496 37.6966,12.0856 C37.4826,11.9216 37.2106,11.8386 36.8806,11.8386 C36.6086,11.8386 36.4096,11.8586 36.2836,11.8966 C36.1566,11.9356 35.9386,11.9546 35.6276,11.9546 C35.4136,11.9546 35.2586,11.9306 35.1616,11.8826 C35.0646,11.8346 34.9866,11.7916 34.9286,11.7526 C35.1426,11.4436 35.2876,11.0966 35.3656,10.7096 C35.4426,10.3246 35.4626,10.0056 35.4236,9.7546 C35.3846,9.3886 35.2536,9.0316 35.0306,8.6836 C34.8076,8.3366 34.4236,8.1626 33.8796,8.1626 C33.5886,8.1626 33.2876,8.2976 32.9766,8.5686 C32.6656,8.8386 32.3846,9.1616 32.1326,9.5376 C31.8796,9.9136 31.6756,10.3046 31.5206,10.7096 C31.3646,11.1156 31.3066,11.4436 31.3456,11.6946 C31.3846,11.9836 31.4426,12.1716 31.5206,12.2586 C31.5976,12.3456 31.7436,12.4856 31.9576,12.6786 C31.8406,12.8916 31.6556,13.2336 31.4036,13.7056 C31.1516,14.1796 30.8746,14.7146 30.5736,15.3126 C30.2726,15.9106 29.9566,16.5426 29.6266,17.2086 C29.2966,17.8746 28.9906,18.4926 28.7096,19.0616 C28.4276,19.6306 28.1846,20.1176 27.9806,20.5236 C27.7766,20.9286 27.6456,21.1886 27.5876,21.3046 C27.4706,21.5366 27.4326,21.7296 27.4706,21.8836 C27.5106,22.0376 27.5926,22.1396 27.7186,22.1876 C27.8456,22.2356 27.9906,22.2256 28.1556,22.1586 C28.3206,22.0906 28.4716,21.9506 28.6076,21.7386 C28.6656,21.6616 28.8166,21.4256 29.0586,21.0296" id="Fill-6"></path>
                    <path d="M51.9705,15.3559 C51.6795,15.7319 51.3395,16.1519 50.9505,16.6159 C50.5625,17.0789 50.1395,17.5519 49.6835,18.0339 C49.2275,18.5159 48.7755,18.9599 48.3295,19.3659 C47.8825,19.7709 47.4505,20.0939 47.0325,20.3349 C46.6145,20.5759 46.2605,20.6779 45.9695,20.6389 C45.6005,20.6199 45.2895,20.5039 45.0375,20.2919 C44.8235,20.0989 44.6435,19.7849 44.4985,19.3509 C44.3525,18.9169 44.3385,18.2849 44.4545,17.4549 C44.9595,16.2969 45.4155,15.2069 45.8235,14.1839 C46.2315,13.1609 46.5815,12.2539 46.8725,11.4629 C47.2025,10.5559 47.4935,9.7169 47.7465,8.9449 C47.8635,8.6159 47.9545,8.3029 48.0235,8.0039 C48.0915,7.7049 48.1635,7.4009 48.2415,7.0919 C48.3965,7.0919 48.5475,7.0879 48.6935,7.0769 C48.8385,7.0679 48.9705,7.0629 49.0865,7.0629 C49.7075,7.0629 50.2515,7.0819 50.7175,7.1209 C51.1845,7.1599 51.5865,7.1979 51.9265,7.2359 C52.2665,7.2749 52.5575,7.3239 52.8005,7.3809 C53.0435,7.4389 53.2615,7.4779 53.4565,7.4969 C53.6505,7.5359 53.8245,7.4969 53.9805,7.3809 C54.1355,7.2649 54.2475,7.1259 54.3155,6.9619 C54.3835,6.7979 54.4125,6.6389 54.4035,6.4839 C54.3935,6.3299 54.3205,6.2329 54.1845,6.1949 C54.0485,6.1559 53.8445,6.0839 53.5725,5.9769 C53.3005,5.8709 52.9415,5.7649 52.4945,5.6589 C52.0475,5.5529 51.5085,5.4569 50.8785,5.3699 C50.2465,5.2829 49.5235,5.2389 48.7075,5.2389 C48.9015,4.2549 49.0085,3.4449 49.0285,2.8079 C49.0475,2.1709 49.0085,1.7759 48.9115,1.6209 C48.8145,1.5049 48.6595,1.4329 48.4455,1.4039 C48.2315,1.3749 48.0085,1.3749 47.7755,1.4039 C47.5425,1.4329 47.3245,1.4809 47.1205,1.5489 C46.9165,1.6169 46.7855,1.6979 46.7265,1.7949 C46.5325,2.0649 46.3135,2.5429 46.0715,3.2279 C45.8285,3.9129 45.5805,4.7179 45.3285,5.6439 C44.9985,5.7019 44.6635,5.7509 44.3235,5.7899 C43.9835,5.8279 43.6285,5.8569 43.2605,5.8759 C42.7555,5.8959 42.2885,5.8909 41.8615,5.8619 C41.4345,5.8329 41.0365,5.7989 40.6675,5.7609 C40.5515,5.7609 40.4195,5.8139 40.2745,5.9199 C40.1285,6.0259 40.0075,6.1509 39.9105,6.2959 C39.8135,6.4409 39.7545,6.5859 39.7355,6.7299 C39.7165,6.8749 39.7835,6.9859 39.9395,7.0629 C40.2115,7.1979 40.6235,7.3379 41.1775,7.4829 C41.7305,7.6269 42.3185,7.6999 42.9395,7.6999 C43.2115,7.6999 43.5125,7.6809 43.8425,7.6419 C44.1725,7.6039 44.5025,7.5649 44.8335,7.5259 C44.5615,8.6449 44.3035,9.8089 44.0615,11.0139 C43.8185,12.2209 43.5995,13.3489 43.4055,14.4009 C43.2115,15.4529 43.0565,16.3789 42.9395,17.1799 C42.8235,17.9809 42.7555,18.5359 42.7355,18.8439 C42.6965,19.2109 42.7255,19.6109 42.8235,20.0449 C42.9205,20.4799 43.0895,20.8799 43.3335,21.2469 C43.5755,21.6139 43.9105,21.9219 44.3385,22.1729 C44.7655,22.4239 45.2995,22.5489 45.9405,22.5489 C46.3865,22.5489 46.9405,22.3079 47.6005,21.8259 C48.2605,21.3429 48.9405,20.7309 49.6395,19.9879 C50.3395,19.2449 51.0045,18.4489 51.6355,17.5989 C52.2665,16.7509 52.7765,15.9599 53.1645,15.2259 C53.2815,14.9939 53.3345,14.8109 53.3255,14.6759 C53.3155,14.5409 53.2715,14.4439 53.1945,14.3869 C53.1165,14.3289 53.0145,14.3139 52.8885,14.3429 C52.7615,14.3719 52.6595,14.4439 52.5825,14.5599 C52.4655,14.7149 52.2615,14.9799 51.9705,15.3559" id="Fill-8"></path>
                    <path d="M50.6597,21.9268 C50.7767,22.0518 50.8927,22.1538 51.0097,22.2308 C51.1447,22.3078 51.2807,22.3658 51.4167,22.4048 C51.5727,22.4238 51.7177,22.4338 51.8537,22.4338 C51.9707,22.4338 52.0967,22.4138 52.2327,22.3758 C52.3687,22.3368 52.4847,22.2698 52.5827,22.1728 C53.4757,18.6808 54.2187,15.7858 54.8107,13.4888 C55.4027,11.1928 55.8747,9.3788 56.2237,8.0468 C56.6317,6.4838 56.9517,5.2878 57.1847,4.4578 C57.2817,4.0338 57.3697,3.6378 57.4477,3.2708 C57.4857,2.9628 57.5097,2.6628 57.5207,2.3738 C57.5297,2.0838 57.4767,1.8908 57.3597,1.7948 C57.3207,1.6978 57.2337,1.6358 57.0977,1.6068 C56.9617,1.5778 56.8157,1.5628 56.6607,1.5628 C56.4857,1.5628 56.2917,1.5828 56.0777,1.6208 C55.8637,1.6598 55.6507,1.7078 55.4367,1.7658 C55.2627,1.8048 55.0827,1.8518 54.8987,1.9108 C54.7137,1.9688 54.5437,2.0458 54.3887,2.1418 C54.4467,2.4128 54.4757,2.7118 54.4757,3.0398 C54.4757,3.3678 54.4567,3.6858 54.4177,3.9948 C54.3787,4.3418 54.3307,4.6988 54.2717,5.0658 C54.1557,5.5868 53.9417,6.5228 53.6307,7.8738 C53.3587,9.0128 52.9657,10.6618 52.4517,12.8238 C51.9367,14.9848 51.2517,17.8508 50.3977,21.4208 C50.4557,21.6328 50.5427,21.8018 50.6597,21.9268" id="Fill-10"></path>
                    <path d="M63.5212,17.8601 C63.3752,18.0731 63.1912,18.3041 62.9682,18.5551 C62.7442,18.8061 62.4912,19.0471 62.2102,19.2781 C61.9282,19.5101 61.6472,19.6981 61.3652,19.8431 C61.0832,19.9871 60.8072,20.0651 60.5352,20.0751 C60.2632,20.0841 60.0202,19.9831 59.8072,19.7711 C59.6902,19.6541 59.6122,19.4091 59.5742,19.0321 C59.5352,18.6561 59.5492,18.2171 59.6172,17.7151 C59.6852,17.2131 59.8072,16.6781 59.9822,16.1091 C60.1562,15.5391 60.3892,15.0041 60.6812,14.5021 C61.3802,13.2861 61.9962,12.4521 62.5312,11.9981 C63.0652,11.5451 63.4382,11.4051 63.6522,11.5791 C63.7102,11.6561 63.7492,11.7621 63.7692,11.8971 C63.7882,12.0131 63.7832,12.1721 63.7542,12.3751 C63.7252,12.5771 63.6332,12.8331 63.4772,13.1421 C63.6332,13.1031 63.7882,13.0741 63.9432,13.0551 C64.0992,13.0361 64.2252,13.0071 64.3222,12.9681 C64.4392,12.9291 64.5452,12.9001 64.6432,12.8811 C64.7202,12.8621 64.7352,13.0111 64.6862,13.3301 C64.6382,13.6481 64.5652,14.0491 64.4682,14.5311 C64.3702,15.0141 64.2542,15.5151 64.1182,16.0361 C63.9822,16.5571 63.8662,17.0111 63.7692,17.3971 C63.7492,17.4931 63.6672,17.6481 63.5212,17.8601 M72.7272,15.3121 C72.7752,15.0811 72.7602,14.9071 72.6832,14.7921 C72.6052,14.6761 72.4892,14.6321 72.3332,14.6611 C72.1782,14.6901 72.0222,14.7921 71.8672,14.9651 C71.7512,15.1201 71.5612,15.3611 71.2992,15.6891 C71.0372,16.0171 70.7412,16.3941 70.4112,16.8181 C70.0802,17.2431 69.7262,17.6821 69.3472,18.1351 C68.9692,18.5891 68.6052,19.0031 68.2552,19.3801 C67.9052,19.7561 67.5752,20.0651 67.2642,20.3061 C66.9542,20.5471 66.7012,20.6681 66.5072,20.6681 C66.2742,20.6681 66.0942,20.6151 65.9682,20.5091 C65.8422,20.4031 65.7502,20.2631 65.6912,20.0891 C65.6332,19.9151 65.5992,19.7271 65.5892,19.5241 C65.5792,19.3221 65.5842,19.1331 65.6042,18.9601 C65.6622,18.6701 65.7102,18.4301 65.7502,18.2361 C65.7882,18.0441 65.8222,17.8741 65.8522,17.7291 C65.8812,17.5851 65.9102,17.4401 65.9392,17.2951 C65.9682,17.1511 66.0022,16.9921 66.0412,16.8181 C66.2352,15.9301 66.3912,15.2071 66.5072,14.6471 C66.6242,14.0871 66.7112,13.6441 66.7692,13.3151 C66.8272,12.9881 66.8572,12.7611 66.8572,12.6351 C66.8572,12.5101 66.8472,12.4281 66.8272,12.3891 C66.7882,12.3701 66.7112,12.3601 66.5942,12.3601 C66.4972,12.3601 66.3562,12.3701 66.1722,12.3891 C65.9872,12.4081 65.7592,12.4471 65.4872,12.5051 C65.8952,11.8881 66.0552,11.3901 65.9682,11.0141 C65.8812,10.6381 65.7012,10.3531 65.4292,10.1601 C65.0992,9.9481 64.6722,9.7941 64.1472,9.6971 C63.7002,9.6591 63.1372,9.8131 62.4582,10.1601 C61.7782,10.5081 61.0892,11.0241 60.3892,11.7091 C59.6902,12.3941 59.0442,13.2191 58.4522,14.1841 C57.8602,15.1491 57.4282,16.2201 57.1562,17.3971 C56.9422,18.2651 56.8652,19.0131 56.9232,19.6401 C56.9812,20.2671 57.1172,20.7791 57.3312,21.1741 C57.5442,21.5701 57.8062,21.8591 58.1172,22.0431 C58.4282,22.2261 58.7192,22.3181 58.9912,22.3181 C59.5742,22.2791 60.1562,22.1541 60.7392,21.9411 C61.2442,21.7491 61.7782,21.4451 62.3412,21.0301 C62.9042,20.6151 63.4192,20.0211 63.8852,19.2491 C63.8662,19.7711 63.9002,20.2051 63.9872,20.5521 C64.0752,20.8991 64.1672,21.1791 64.2642,21.3911 C64.3802,21.6431 64.5262,21.8361 64.7012,21.9701 C64.8762,22.0861 65.0802,22.1681 65.3132,22.2161 C65.5462,22.2651 65.7932,22.2791 66.0552,22.2601 C66.3182,22.2401 66.5752,22.1921 66.8272,22.1151 C67.0802,22.0381 67.3032,21.9411 67.4982,21.8261 C67.7892,21.6331 68.1532,21.3001 68.5902,20.8271 C69.0272,20.3551 69.4732,19.8331 69.9302,19.2641 C70.3862,18.6951 70.8282,18.1261 71.2552,17.5561 C71.6822,16.9871 72.0322,16.5091 72.3042,16.1231 C72.5372,15.8141 72.6782,15.5441 72.7272,15.3121" id="Fill-12"></path>
                    <path d="M80.3592,22.2164 C80.8352,21.9554 81.3152,21.6184 81.8012,21.2034 C82.2862,20.7884 82.7522,20.3254 83.1992,19.8144 C83.6462,19.3024 84.0632,18.7964 84.4522,18.2944 C84.8402,17.7924 85.1752,17.3204 85.4572,16.8754 C85.7382,16.4314 85.9472,16.0754 86.0832,15.8054 C86.2392,15.4964 86.3162,15.2404 86.3162,15.0384 C86.3162,14.8354 86.2732,14.7054 86.1852,14.6474 C86.0982,14.5884 85.9762,14.5994 85.8212,14.6764 C85.6652,14.7534 85.5012,14.9174 85.3262,15.1684 C85.0732,15.5544 84.7042,16.0604 84.2192,16.6874 C83.7332,17.3154 83.2182,17.9284 82.6752,18.5264 C82.1312,19.1244 81.5922,19.6354 81.0582,20.0594 C80.5242,20.4844 80.0822,20.6964 79.7332,20.6964 C79.3832,20.6964 79.1942,20.5424 79.1652,20.2334 C79.1352,19.9254 79.1792,19.5584 79.2962,19.1334 C79.5092,18.4774 79.6892,17.8744 79.8352,17.3244 C79.9802,16.7744 80.1012,16.2974 80.1992,15.8914 L80.5192,14.6174 C80.6942,14.0004 80.7672,13.4314 80.7382,12.9104 C80.7092,12.3894 80.6112,11.9404 80.4462,11.5644 C80.2812,11.1884 80.0532,10.8934 79.7622,10.6814 C79.4702,10.4694 79.1402,10.3624 78.7712,10.3624 C78.3242,10.3624 77.8872,10.4544 77.4602,10.6374 C77.0332,10.8214 76.6302,11.0574 76.2512,11.3474 C75.8732,11.6364 75.5232,11.9594 75.2032,12.3164 C74.8822,12.6744 74.5952,13.0254 74.3432,13.3734 C74.4602,13.0454 74.5572,12.7274 74.6352,12.4184 C74.7122,12.1474 74.7902,11.8924 74.8682,11.6514 C74.9452,11.4094 75.0132,11.2214 75.0722,11.0864 C74.9552,10.9894 74.8242,10.9174 74.6782,10.8694 C74.5332,10.8214 74.3922,10.7874 74.2562,10.7684 C74.1002,10.7494 73.9452,10.7384 73.7902,10.7384 C73.6152,10.7584 73.4502,10.7974 73.2952,10.8554 C73.1392,10.8934 72.9892,10.9464 72.8432,11.0144 C72.6982,11.0824 72.5562,11.1734 72.4212,11.2894 C72.2262,12.0224 72.0562,12.6984 71.9112,13.3154 C71.7652,13.9334 71.6442,14.4734 71.5472,14.9364 C71.4302,15.4764 71.3232,15.9684 71.2262,16.4124 C71.0902,16.9724 70.9442,17.5604 70.7892,18.1784 C70.6342,18.7964 70.4832,19.3794 70.3382,19.9294 C70.1922,20.4804 70.0662,20.9574 69.9592,21.3624 C69.8522,21.7674 69.7892,22.0284 69.7702,22.1444 C69.7312,22.3174 69.8332,22.4044 70.0762,22.4044 C70.3192,22.4044 70.6042,22.3464 70.9352,22.2304 C71.2652,22.1154 71.5762,21.9654 71.8672,21.7824 C72.1582,21.5994 72.3332,21.4104 72.3922,21.2174 C72.4502,20.9474 72.5182,20.6634 72.5952,20.3634 C72.6732,20.0654 72.7562,19.7174 72.8432,19.3224 C72.9302,18.9264 73.0322,18.4824 73.1492,17.9904 C73.2652,17.4984 73.4112,16.9244 73.5862,16.2684 C73.9162,15.7854 74.2512,15.3184 74.5912,14.8644 C74.9312,14.4114 75.2702,14.0104 75.6112,13.6624 C75.9502,13.3154 76.2852,13.0404 76.6162,12.8374 C76.9462,12.6354 77.2662,12.5334 77.5772,12.5334 C77.8292,12.5334 77.9942,12.6744 78.0722,12.9534 C78.1502,13.2334 78.1692,13.5904 78.1302,14.0244 C78.0912,14.4584 78.0092,14.9414 77.8832,15.4724 C77.7562,16.0034 77.6212,16.5334 77.4752,17.0644 C77.3292,17.5954 77.1882,18.0874 77.0532,18.5404 C76.9162,18.9934 76.8192,19.3554 76.7612,19.6254 C76.6642,20.0304 76.6452,20.4124 76.7032,20.7694 C76.7612,21.1264 76.8872,21.4394 77.0822,21.7104 C77.2762,21.9794 77.5332,22.1974 77.8542,22.3614 C78.1742,22.5244 78.5572,22.6074 79.0042,22.6074 C79.4312,22.6074 79.8832,22.4774 80.3592,22.2164" id="Fill-14"></path>
                    <path d="M90.8465,17.7444 C90.5065,18.1494 90.1375,18.5454 89.7395,18.9314 C89.3415,19.3174 88.9335,19.6454 88.5165,19.9154 C88.0985,20.1854 87.7145,20.3204 87.3655,20.3204 C86.8995,20.3204 86.5305,20.1184 86.2585,19.7124 C85.9865,19.3074 85.8695,18.6414 85.9085,17.7154 C85.9475,17.1364 86.1025,16.4804 86.3745,15.7464 C86.6465,15.0134 86.9865,14.3234 87.3945,13.6774 C87.8025,13.0314 88.2395,12.4804 88.7055,12.0274 C89.1715,11.5734 89.6275,11.3474 90.0745,11.3474 C90.3845,11.3474 90.6285,11.4674 90.8025,11.7084 C90.9775,11.9504 91.1085,12.2294 91.1965,12.5484 C91.2835,12.8664 91.3365,13.1754 91.3565,13.4744 C91.3755,13.7744 91.3855,13.9814 91.3855,14.0964 C91.3855,14.3284 91.4245,14.4974 91.5025,14.6034 C91.5795,14.7094 91.7255,14.7144 91.9385,14.6174 C91.9775,14.5994 92.0115,14.5794 92.0405,14.5594 C92.0705,14.5414 92.1035,14.5214 92.1425,14.5024 C92.0455,14.8884 91.9635,15.2644 91.8955,15.6314 C91.8265,15.9974 91.7545,16.3644 91.6765,16.7314 C91.4625,17.0014 91.1865,17.3384 90.8465,17.7444 M95.1875,13.3014 C95.7405,12.2294 96.2305,11.1594 96.6585,10.0874 C97.0855,9.0164 97.4305,7.9794 97.6925,6.9764 C97.9545,5.9734 98.1045,5.0464 98.1445,4.1974 C98.1825,3.5024 98.1825,2.9524 98.1445,2.5474 C98.1045,2.1414 98.0325,1.8374 97.9255,1.6354 C97.8185,1.4324 97.6875,1.3074 97.5325,1.2594 C97.3765,1.2104 97.2015,1.1864 97.0075,1.1864 C96.8525,1.1864 96.6875,1.2154 96.5125,1.2734 C96.3565,1.3124 96.1925,1.3704 96.0175,1.4474 C95.8425,1.5244 95.6575,1.6404 95.4635,1.7944 C95.1535,2.8184 94.8715,3.7924 94.6195,4.7184 C94.3665,5.6444 94.1425,6.4644 93.9495,7.1784 C93.7355,8.0084 93.5315,8.7804 93.3375,9.4944 C93.2205,9.9774 93.1045,10.4884 92.9875,11.0284 C92.8715,11.5694 92.7445,12.1184 92.6095,12.6784 C92.5505,12.4084 92.4585,12.1184 92.3325,11.8104 C92.2055,11.5014 92.0455,11.2174 91.8515,10.9564 C91.6575,10.6954 91.4245,10.4834 91.1525,10.3194 C90.8805,10.1554 90.5795,10.0734 90.2495,10.0734 C89.4915,10.0734 88.7395,10.2904 87.9915,10.7244 C87.2435,11.1594 86.5735,11.7474 85.9815,12.4904 C85.3885,13.2334 84.8985,14.1074 84.5105,15.1104 C84.1225,16.1134 83.8985,17.1754 83.8405,18.2944 C83.8015,19.0084 83.8605,19.6164 84.0155,20.1184 C84.1705,20.6204 84.3695,21.0254 84.6125,21.3334 C84.8545,21.6424 85.1315,21.8644 85.4425,21.9994 C85.7535,22.1344 86.0445,22.2024 86.3165,22.2024 C87.0745,22.2024 87.8655,21.9364 88.6905,21.4064 C89.5165,20.8754 90.3365,20.1564 91.1525,19.2494 C91.1135,19.5774 91.0845,19.8094 91.0655,19.9444 C91.0455,20.2524 91.0895,20.5614 91.1965,20.8704 C91.3025,21.1794 91.4535,21.4594 91.6475,21.7104 C91.8415,21.9604 92.0605,22.1634 92.3035,22.3174 C92.5455,22.4714 92.8025,22.5494 93.0755,22.5494 C93.4435,22.5494 93.8565,22.4284 94.3135,22.1874 C94.7695,21.9464 95.2455,21.6334 95.7405,21.2474 C96.2355,20.8614 96.7315,20.4174 97.2265,19.9154 C97.7215,19.4134 98.1925,18.9014 98.6395,18.3814 C99.0855,17.8604 99.4935,17.3534 99.8625,16.8614 C100.2315,16.3694 100.5325,15.9394 100.7655,15.5734 C100.9215,15.3414 100.9985,15.1484 100.9985,14.9944 C100.9985,14.8394 100.9595,14.7344 100.8825,14.6764 C100.8045,14.6174 100.7025,14.5994 100.5765,14.6174 C100.4495,14.6374 100.3285,14.7054 100.2125,14.8204 C100.1145,14.9174 99.9355,15.1294 99.6735,15.4574 C99.4115,15.7854 99.0905,16.1664 98.7125,16.6014 C98.3335,17.0354 97.9205,17.4934 97.4735,17.9754 C97.0275,18.4584 96.5805,18.9014 96.1335,19.3074 C95.6865,19.7124 95.2645,20.0504 94.8665,20.3204 C94.4685,20.5904 94.1335,20.7254 93.8615,20.7254 C93.6285,20.7254 93.4145,20.6204 93.2205,20.4074 C93.0265,20.1954 92.9385,19.8474 92.9585,19.3654 C92.9775,19.0374 93.0315,18.6034 93.1185,18.0624 C93.2065,17.5224 93.2985,16.9534 93.3955,16.3544 C94.0365,15.3904 94.6335,14.3724 95.1875,13.3014" id="Fill-16"></path>
                </g>
            </g>
        </g>
    </g>
</svg>